<?xml version="1.0" encoding="UTF-8" ?>
<svg version="1.1" width="640" height="640" xmlns="http://www.w3.org/2000/svg" shape-rendering="crispEdges">
<rect x="50" y="0" width="430" height="10" fill="#C9B79C" />
<rect x="480" y="0" width="110" height="30" fill="#4B5EBA" />
<rect x="30" y="10" width="110" height="10" fill="#F9F2E4" />
<rect x="140" y="10" width="30" height="10" fill="#C9B79C" />
<rect x="170" y="10" width="130" height="10" fill="#F9F2E4" />
<rect x="300" y="10" width="30" height="10" fill="#C9B79C" />
<rect x="330" y="10" width="130" height="10" fill="#F9F2E4" />
<rect x="460" y="10" width="20" height="10" fill="#C9B79C" />
<rect x="590" y="10" width="20" height="100" fill="#4B5EBA" />
<rect x="20" y="20" width="110" height="10" fill="#F9F2E4" />
<rect x="130" y="20" width="10" height="10" fill="#C9B79C" />
<rect x="140" y="20" width="10" height="130" fill="#908171" />
<rect x="150" y="20" width="20" height="150" fill="#C9B79C" />
<rect x="170" y="20" width="120" height="10" fill="#F9F2E4" />
<rect x="290" y="20" width="10" height="10" fill="#C9B79C" />
<rect x="300" y="20" width="10" height="130" fill="#908171" />
<rect x="310" y="20" width="20" height="140" fill="#C9B79C" />
<rect x="330" y="20" width="120" height="10" fill="#F9F2E4" />
<rect x="450" y="20" width="10" height="10" fill="#C9B79C" />
<rect x="460" y="20" width="10" height="130" fill="#908171" />
<rect x="470" y="20" width="10" height="140" fill="#C9B79C" />
<rect x="610" y="20" width="10" height="140" fill="#4B5EBA" />
<rect x="10" y="30" width="20" height="100" fill="#F9F2E4" />
<rect x="30" y="30" width="100" height="100" fill="#C9B79C" />
<rect x="130" y="30" width="10" height="120" fill="#908171" />
<rect x="170" y="30" width="20" height="100" fill="#F9F2E4" />
<rect x="190" y="30" width="100" height="100" fill="#C9B79C" />
<rect x="290" y="30" width="10" height="120" fill="#908171" />
<rect x="330" y="30" width="20" height="100" fill="#F9F2E4" />
<rect x="350" y="30" width="100" height="100" fill="#C9B79C" />
<rect x="450" y="30" width="10" height="120" fill="#908171" />
<rect x="480" y="30" width="60" height="10" fill="#4B5EBA" />
<rect x="540" y="30" width="30" height="90" fill="#FFFFFF" />
<rect x="570" y="30" width="20" height="10" fill="#4B5EBA" />
<rect x="620" y="30" width="10" height="130" fill="#4B5EBA" />
<rect x="480" y="40" width="50" height="10" fill="#4B5EBA" />
<rect x="530" y="40" width="10" height="20" fill="#FFFFFF" />
<rect x="570" y="40" width="10" height="60" fill="#000000" />
<rect x="580" y="40" width="10" height="60" fill="#4B5EBA" />
<rect x="0" y="50" width="10" height="270" fill="#C9B79C" />
<rect x="480" y="50" width="40" height="110" fill="#4B5EBA" />
<rect x="520" y="50" width="10" height="10" fill="#FFFFFF" />
<rect x="630" y="50" width="10" height="110" fill="#4B5EBA" />
<rect x="520" y="60" width="10" height="40" fill="#4B5EBA" />
<rect x="530" y="60" width="10" height="10" fill="#000000" />
<rect x="530" y="70" width="10" height="30" fill="#4B5EBA" />
<rect x="520" y="100" width="20" height="20" fill="#FFFFFF" />
<rect x="570" y="100" width="20" height="20" fill="#FFFFFF" />
<rect x="590" y="110" width="10" height="20" fill="#000000" />
<rect x="600" y="110" width="10" height="50" fill="#4B5EBA" />
<rect x="520" y="120" width="10" height="40" fill="#4B5EBA" />
<rect x="530" y="120" width="60" height="10" fill="#000000" />
<rect x="10" y="130" width="10" height="10" fill="#F9F2E4" />
<rect x="20" y="130" width="10" height="10" fill="#C9B79C" />
<rect x="30" y="130" width="100" height="20" fill="#908171" />
<rect x="170" y="130" width="10" height="10" fill="#F9F2E4" />
<rect x="180" y="130" width="10" height="10" fill="#C9B79C" />
<rect x="190" y="130" width="100" height="20" fill="#908171" />
<rect x="330" y="130" width="10" height="10" fill="#F9F2E4" />
<rect x="340" y="130" width="10" height="10" fill="#C9B79C" />
<rect x="350" y="130" width="100" height="20" fill="#908171" />
<rect x="530" y="130" width="70" height="30" fill="#4B5EBA" />
<rect x="10" y="140" width="10" height="30" fill="#C9B79C" />
<rect x="20" y="140" width="10" height="10" fill="#908171" />
<rect x="170" y="140" width="10" height="20" fill="#C9B79C" />
<rect x="180" y="140" width="10" height="10" fill="#908171" />
<rect x="330" y="140" width="10" height="20" fill="#C9B79C" />
<rect x="340" y="140" width="10" height="10" fill="#908171" />
<rect x="20" y="150" width="130" height="20" fill="#C9B79C" />
<rect x="180" y="150" width="130" height="10" fill="#C9B79C" />
<rect x="340" y="150" width="130" height="10" fill="#C9B79C" />
<rect x="170" y="160" width="10" height="10" fill="#897A6C" />
<rect x="180" y="160" width="10" height="10" fill="#C9B79C" />
<rect x="190" y="160" width="10" height="10" fill="#897A6C" />
<rect x="200" y="160" width="10" height="10" fill="#C9B79C" />
<rect x="210" y="160" width="10" height="10" fill="#897A6C" />
<rect x="220" y="160" width="10" height="10" fill="#C9B79C" />
<rect x="230" y="160" width="10" height="10" fill="#897A6C" />
<rect x="240" y="160" width="10" height="10" fill="#C9B79C" />
<rect x="250" y="160" width="10" height="10" fill="#897A6C" />
<rect x="260" y="160" width="10" height="10" fill="#C9B79C" />
<rect x="270" y="160" width="10" height="10" fill="#897A6C" />
<rect x="280" y="160" width="10" height="10" fill="#C9B79C" />
<rect x="290" y="160" width="10" height="10" fill="#897A6C" />
<rect x="300" y="160" width="10" height="10" fill="#C9B79C" />
<rect x="310" y="160" width="10" height="10" fill="#897A6C" />
<rect x="320" y="160" width="160" height="30" fill="#4B5EBA" />
<rect x="480" y="160" width="160" height="160" fill="#FCF5E8" />
<rect x="10" y="170" width="130" height="10" fill="#F9F2E4" />
<rect x="140" y="170" width="20" height="10" fill="#C9B79C" />
<rect x="160" y="170" width="10" height="10" fill="#897A6C" />
<rect x="170" y="170" width="10" height="10" fill="#C9B79C" />
<rect x="180" y="170" width="10" height="10" fill="#897A6C" />
<rect x="190" y="170" width="10" height="10" fill="#C9B79C" />
<rect x="200" y="170" width="10" height="10" fill="#897A6C" />
<rect x="210" y="170" width="10" height="10" fill="#C9B79C" />
<rect x="220" y="170" width="10" height="10" fill="#897A6C" />
<rect x="230" y="170" width="10" height="10" fill="#C9B79C" />
<rect x="240" y="170" width="10" height="10" fill="#897A6C" />
<rect x="250" y="170" width="10" height="10" fill="#C9B79C" />
<rect x="260" y="170" width="10" height="10" fill="#897A6C" />
<rect x="270" y="170" width="10" height="10" fill="#C9B79C" />
<rect x="280" y="170" width="10" height="10" fill="#897A6C" />
<rect x="290" y="170" width="10" height="10" fill="#C9B79C" />
<rect x="300" y="170" width="10" height="10" fill="#897A6C" />
<rect x="310" y="170" width="10" height="10" fill="#C9B79C" />
<rect x="10" y="180" width="120" height="10" fill="#F9F2E4" />
<rect x="130" y="180" width="10" height="10" fill="#C9B79C" />
<rect x="140" y="180" width="10" height="130" fill="#908171" />
<rect x="150" y="180" width="20" height="10" fill="#C9B79C" />
<rect x="170" y="180" width="10" height="10" fill="#897A6C" />
<rect x="180" y="180" width="10" height="10" fill="#C9B79C" />
<rect x="190" y="180" width="10" height="10" fill="#897A6C" />
<rect x="200" y="180" width="10" height="10" fill="#C9B79C" />
<rect x="210" y="180" width="10" height="10" fill="#897A6C" />
<rect x="220" y="180" width="10" height="10" fill="#C9B79C" />
<rect x="230" y="180" width="10" height="10" fill="#897A6C" />
<rect x="240" y="180" width="10" height="10" fill="#C9B79C" />
<rect x="250" y="180" width="10" height="10" fill="#897A6C" />
<rect x="260" y="180" width="10" height="90" fill="#FFFFFF" />
<rect x="270" y="180" width="10" height="10" fill="#897A6C" />
<rect x="280" y="180" width="10" height="10" fill="#C9B79C" />
<rect x="290" y="180" width="10" height="10" fill="#897A6C" />
<rect x="300" y="180" width="10" height="10" fill="#C9B79C" />
<rect x="310" y="180" width="10" height="10" fill="#897A6C" />
<rect x="10" y="190" width="20" height="100" fill="#F9F2E4" />
<rect x="30" y="190" width="100" height="100" fill="#C9B79C" />
<rect x="130" y="190" width="10" height="120" fill="#908171" />
<rect x="150" y="190" width="10" height="130" fill="#C9B79C" />
<rect x="160" y="190" width="10" height="10" fill="#897A6C" />
<rect x="170" y="190" width="10" height="10" fill="#C9B79C" />
<rect x="180" y="190" width="10" height="10" fill="#897A6C" />
<rect x="190" y="190" width="10" height="10" fill="#C9B79C" />
<rect x="200" y="190" width="20" height="40" fill="#FFFFFF" />
<rect x="220" y="190" width="10" height="10" fill="#897A6C" />
<rect x="230" y="190" width="10" height="10" fill="#C9B79C" />
<rect x="240" y="190" width="10" height="40" fill="#FFFFFF" />
<rect x="250" y="190" width="10" height="10" fill="#C9B79C" />
<rect x="270" y="190" width="10" height="80" fill="#000000" />
<rect x="280" y="190" width="10" height="10" fill="#897A6C" />
<rect x="290" y="190" width="10" height="10" fill="#C9B79C" />
<rect x="300" y="190" width="10" height="10" fill="#897A6C" />
<rect x="310" y="190" width="10" height="10" fill="#C9B79C" />
<rect x="320" y="190" width="60" height="10" fill="#4B5EBA" />
<rect x="380" y="190" width="30" height="90" fill="#FFFFFF" />
<rect x="410" y="190" width="70" height="10" fill="#4B5EBA" />
<rect x="160" y="200" width="10" height="10" fill="#C9B79C" />
<rect x="170" y="200" width="10" height="10" fill="#897A6C" />
<rect x="180" y="200" width="10" height="10" fill="#C9B79C" />
<rect x="190" y="200" width="10" height="40" fill="#FFFFFF" />
<rect x="220" y="200" width="20" height="40" fill="#FFFFFF" />
<rect x="250" y="200" width="10" height="40" fill="#000000" />
<rect x="280" y="200" width="10" height="10" fill="#C9B79C" />
<rect x="290" y="200" width="10" height="10" fill="#897A6C" />
<rect x="300" y="200" width="10" height="10" fill="#C9B79C" />
<rect x="310" y="200" width="10" height="10" fill="#897A6C" />
<rect x="320" y="200" width="50" height="10" fill="#4B5EBA" />
<rect x="370" y="200" width="10" height="20" fill="#FFFFFF" />
<rect x="410" y="200" width="10" height="60" fill="#000000" />
<rect x="420" y="200" width="60" height="60" fill="#4B5EBA" />
<rect x="160" y="210" width="10" height="10" fill="#897A6C" />
<rect x="170" y="210" width="10" height="10" fill="#C9B79C" />
<rect x="180" y="210" width="10" height="10" fill="#897A6C" />
<rect x="280" y="210" width="10" height="10" fill="#897A6C" />
<rect x="290" y="210" width="10" height="10" fill="#C9B79C" />
<rect x="300" y="210" width="10" height="10" fill="#897A6C" />
<rect x="310" y="210" width="10" height="10" fill="#C9B79C" />
<rect x="320" y="210" width="40" height="110" fill="#4B5EBA" />
<rect x="360" y="210" width="10" height="10" fill="#FFFFFF" />
<rect x="160" y="220" width="10" height="10" fill="#C9B79C" />
<rect x="170" y="220" width="10" height="10" fill="#897A6C" />
<rect x="180" y="220" width="10" height="10" fill="#C9B79C" />
<rect x="280" y="220" width="10" height="10" fill="#C9B79C" />
<rect x="290" y="220" width="10" height="10" fill="#897A6C" />
<rect x="300" y="220" width="10" height="10" fill="#C9B79C" />
<rect x="310" y="220" width="10" height="10" fill="#897A6C" />
<rect x="360" y="220" width="10" height="40" fill="#4B5EBA" />
<rect x="370" y="220" width="10" height="10" fill="#000000" />
<rect x="160" y="230" width="10" height="10" fill="#897A6C" />
<rect x="170" y="230" width="10" height="10" fill="#C9B79C" />
<rect x="180" y="230" width="10" height="10" fill="#897A6C" />
<rect x="200" y="230" width="20" height="10" fill="#000000" />
<rect x="240" y="230" width="10" height="10" fill="#000000" />
<rect x="280" y="230" width="10" height="10" fill="#897A6C" />
<rect x="290" y="230" width="10" height="10" fill="#C9B79C" />
<rect x="300" y="230" width="10" height="10" fill="#897A6C" />
<rect x="310" y="230" width="10" height="10" fill="#C9B79C" />
<rect x="370" y="230" width="10" height="30" fill="#4B5EBA" />
<rect x="160" y="240" width="10" height="10" fill="#C9B79C" />
<rect x="170" y="240" width="10" height="10" fill="#897A6C" />
<rect x="180" y="240" width="10" height="10" fill="#C9B79C" />
<rect x="190" y="240" width="10" height="10" fill="#000000" />
<rect x="200" y="240" width="10" height="10" fill="#C9B79C" />
<rect x="210" y="240" width="10" height="10" fill="#897A6C" />
<rect x="220" y="240" width="20" height="10" fill="#000000" />
<rect x="240" y="240" width="10" height="10" fill="#C9B79C" />
<rect x="250" y="240" width="10" height="10" fill="#897A6C" />
<rect x="280" y="240" width="10" height="10" fill="#C9B79C" />
<rect x="290" y="240" width="10" height="10" fill="#897A6C" />
<rect x="300" y="240" width="10" height="10" fill="#C9B79C" />
<rect x="310" y="240" width="10" height="10" fill="#897A6C" />
<rect x="160" y="250" width="10" height="10" fill="#897A6C" />
<rect x="170" y="250" width="10" height="10" fill="#C9B79C" />
<rect x="180" y="250" width="10" height="10" fill="#897A6C" />
<rect x="190" y="250" width="10" height="10" fill="#C9B79C" />
<rect x="200" y="250" width="10" height="10" fill="#897A6C" />
<rect x="210" y="250" width="10" height="10" fill="#C9B79C" />
<rect x="220" y="250" width="10" height="10" fill="#897A6C" />
<rect x="230" y="250" width="10" height="10" fill="#C9B79C" />
<rect x="240" y="250" width="10" height="10" fill="#897A6C" />
<rect x="250" y="250" width="10" height="10" fill="#C9B79C" />
<rect x="280" y="250" width="10" height="10" fill="#897A6C" />
<rect x="290" y="250" width="10" height="10" fill="#C9B79C" />
<rect x="300" y="250" width="10" height="10" fill="#897A6C" />
<rect x="310" y="250" width="10" height="10" fill="#C9B79C" />
<rect x="160" y="260" width="10" height="10" fill="#C9B79C" />
<rect x="170" y="260" width="10" height="10" fill="#897A6C" />
<rect x="180" y="260" width="10" height="10" fill="#C9B79C" />
<rect x="190" y="260" width="10" height="10" fill="#897A6C" />
<rect x="200" y="260" width="10" height="10" fill="#C9B79C" />
<rect x="210" y="260" width="10" height="10" fill="#897A6C" />
<rect x="220" y="260" width="10" height="10" fill="#C9B79C" />
<rect x="230" y="260" width="10" height="10" fill="#897A6C" />
<rect x="240" y="260" width="10" height="10" fill="#C9B79C" />
<rect x="250" y="260" width="10" height="10" fill="#897A6C" />
<rect x="280" y="260" width="10" height="10" fill="#C9B79C" />
<rect x="290" y="260" width="10" height="10" fill="#897A6C" />
<rect x="300" y="260" width="10" height="10" fill="#C9B79C" />
<rect x="310" y="260" width="10" height="10" fill="#897A6C" />
<rect x="360" y="260" width="20" height="20" fill="#FFFFFF" />
<rect x="410" y="260" width="20" height="20" fill="#FFFFFF" />
<rect x="430" y="260" width="50" height="10" fill="#4B5EBA" />
<rect x="160" y="270" width="10" height="10" fill="#897A6C" />
<rect x="170" y="270" width="10" height="10" fill="#C9B79C" />
<rect x="180" y="270" width="10" height="10" fill="#897A6C" />
<rect x="190" y="270" width="10" height="10" fill="#C9B79C" />
<rect x="200" y="270" width="10" height="10" fill="#897A6C" />
<rect x="210" y="270" width="10" height="10" fill="#C9B79C" />
<rect x="220" y="270" width="10" height="10" fill="#897A6C" />
<rect x="230" y="270" width="10" height="10" fill="#C9B79C" />
<rect x="240" y="270" width="10" height="10" fill="#897A6C" />
<rect x="250" y="270" width="10" height="20" fill="#FFFFFF" />
<rect x="260" y="270" width="10" height="10" fill="#000000" />
<rect x="270" y="270" width="10" height="20" fill="#FFFFFF" />
<rect x="280" y="270" width="10" height="30" fill="#000000" />
<rect x="290" y="270" width="10" height="10" fill="#C9B79C" />
<rect x="300" y="270" width="10" height="10" fill="#897A6C" />
<rect x="310" y="270" width="10" height="10" fill="#C9B79C" />
<rect x="430" y="270" width="10" height="20" fill="#000000" />
<rect x="440" y="270" width="40" height="50" fill="#4B5EBA" />
<rect x="160" y="280" width="10" height="10" fill="#C9B79C" />
<rect x="170" y="280" width="10" height="10" fill="#897A6C" />
<rect x="180" y="280" width="10" height="10" fill="#C9B79C" />
<rect x="190" y="280" width="10" height="10" fill="#897A6C" />
<rect x="200" y="280" width="10" height="10" fill="#C9B79C" />
<rect x="210" y="280" width="10" height="10" fill="#897A6C" />
<rect x="220" y="280" width="10" height="10" fill="#C9B79C" />
<rect x="230" y="280" width="10" height="10" fill="#897A6C" />
<rect x="240" y="280" width="10" height="10" fill="#C9B79C" />
<rect x="260" y="280" width="10" height="10" fill="#FFFFFF" />
<rect x="290" y="280" width="10" height="10" fill="#897A6C" />
<rect x="300" y="280" width="10" height="10" fill="#C9B79C" />
<rect x="310" y="280" width="10" height="10" fill="#897A6C" />
<rect x="360" y="280" width="10" height="40" fill="#4B5EBA" />
<rect x="370" y="280" width="60" height="10" fill="#000000" />
<rect x="10" y="290" width="10" height="10" fill="#F9F2E4" />
<rect x="20" y="290" width="10" height="10" fill="#C9B79C" />
<rect x="30" y="290" width="100" height="20" fill="#908171" />
<rect x="160" y="290" width="10" height="10" fill="#897A6C" />
<rect x="170" y="290" width="10" height="10" fill="#C9B79C" />
<rect x="180" y="290" width="10" height="10" fill="#897A6C" />
<rect x="190" y="290" width="10" height="10" fill="#C9B79C" />
<rect x="200" y="290" width="10" height="10" fill="#897A6C" />
<rect x="210" y="290" width="10" height="10" fill="#C9B79C" />
<rect x="220" y="290" width="10" height="10" fill="#897A6C" />
<rect x="230" y="290" width="10" height="10" fill="#C9B79C" />
<rect x="240" y="290" width="10" height="10" fill="#897A6C" />
<rect x="250" y="290" width="10" height="10" fill="#C9B79C" />
<rect x="260" y="290" width="20" height="10" fill="#000000" />
<rect x="290" y="290" width="10" height="10" fill="#C9B79C" />
<rect x="300" y="290" width="10" height="10" fill="#897A6C" />
<rect x="310" y="290" width="10" height="10" fill="#C9B79C" />
<rect x="370" y="290" width="70" height="30" fill="#4B5EBA" />
<rect x="10" y="300" width="10" height="20" fill="#C9B79C" />
<rect x="20" y="300" width="10" height="10" fill="#908171" />
<rect x="160" y="300" width="10" height="10" fill="#C9B79C" />
<rect x="170" y="300" width="10" height="10" fill="#897A6C" />
<rect x="180" y="300" width="10" height="10" fill="#C9B79C" />
<rect x="190" y="300" width="10" height="10" fill="#897A6C" />
<rect x="200" y="300" width="10" height="10" fill="#C9B79C" />
<rect x="210" y="300" width="10" height="10" fill="#897A6C" />
<rect x="220" y="300" width="10" height="10" fill="#C9B79C" />
<rect x="230" y="300" width="10" height="10" fill="#897A6C" />
<rect x="240" y="300" width="10" height="10" fill="#C9B79C" />
<rect x="250" y="300" width="10" height="10" fill="#897A6C" />
<rect x="260" y="300" width="10" height="10" fill="#C9B79C" />
<rect x="270" y="300" width="10" height="10" fill="#897A6C" />
<rect x="280" y="300" width="10" height="10" fill="#C9B79C" />
<rect x="290" y="300" width="10" height="10" fill="#897A6C" />
<rect x="300" y="300" width="10" height="10" fill="#C9B79C" />
<rect x="310" y="300" width="10" height="10" fill="#897A6C" />
<rect x="20" y="310" width="130" height="10" fill="#C9B79C" />
<rect x="160" y="310" width="10" height="10" fill="#897A6C" />
<rect x="170" y="310" width="10" height="10" fill="#C9B79C" />
<rect x="180" y="310" width="10" height="10" fill="#897A6C" />
<rect x="190" y="310" width="10" height="10" fill="#C9B79C" />
<rect x="200" y="310" width="10" height="10" fill="#897A6C" />
<rect x="210" y="310" width="10" height="10" fill="#C9B79C" />
<rect x="220" y="310" width="10" height="10" fill="#897A6C" />
<rect x="230" y="310" width="10" height="10" fill="#C9B79C" />
<rect x="240" y="310" width="10" height="10" fill="#897A6C" />
<rect x="250" y="310" width="10" height="10" fill="#C9B79C" />
<rect x="260" y="310" width="10" height="10" fill="#897A6C" />
<rect x="270" y="310" width="10" height="10" fill="#C9B79C" />
<rect x="280" y="310" width="10" height="10" fill="#897A6C" />
<rect x="290" y="310" width="10" height="10" fill="#C9B79C" />
<rect x="300" y="310" width="10" height="10" fill="#897A6C" />
<rect x="310" y="310" width="10" height="10" fill="#C9B79C" />
<rect x="0" y="320" width="10" height="10" fill="#8A8B8E" />
<rect x="10" y="320" width="10" height="10" fill="#8D8D93" />
<rect x="20" y="320" width="130" height="10" fill="#8E9092" />
<rect x="150" y="320" width="10" height="70" fill="#8A8B8E" />
<rect x="160" y="320" width="160" height="30" fill="#2F8055" />
<rect x="320" y="320" width="160" height="30" fill="#F1C55A" />
<rect x="480" y="320" width="160" height="10" fill="#C9B79C" />
<rect x="0" y="330" width="10" height="10" fill="#8D8D93" />
<rect x="10" y="330" width="10" height="10" fill="#8E9092" />
<rect x="20" y="330" width="20" height="10" fill="#8F9090" />
<rect x="40" y="330" width="20" height="10" fill="#909192" />
<rect x="60" y="330" width="10" height="10" fill="#8F9090" />
<rect x="70" y="330" width="20" height="20" fill="#8D8D8D" />
<rect x="90" y="330" width="10" height="10" fill="#8F9090" />
<rect x="100" y="330" width="20" height="10" fill="#909192" />
<rect x="120" y="330" width="20" height="10" fill="#8F9090" />
<rect x="140" y="330" width="10" height="10" fill="#8E9092" />
<rect x="480" y="330" width="10" height="310" fill="#C9B79C" />
<rect x="490" y="330" width="130" height="10" fill="#F9F2E4" />
<rect x="620" y="330" width="20" height="10" fill="#C9B79C" />
<rect x="0" y="340" width="10" height="130" fill="#8E9092" />
<rect x="10" y="340" width="10" height="20" fill="#8F9090" />
<rect x="20" y="340" width="20" height="10" fill="#929292" />
<rect x="40" y="340" width="10" height="10" fill="#8E8E8E" />
<rect x="50" y="340" width="10" height="10" fill="#8D8D8D" />
<rect x="60" y="340" width="10" height="10" fill="#929292" />
<rect x="90" y="340" width="10" height="10" fill="#929292" />
<rect x="100" y="340" width="10" height="10" fill="#8D8D8D" />
<rect x="110" y="340" width="10" height="10" fill="#8E8E8E" />
<rect x="120" y="340" width="10" height="10" fill="#919191" />
<rect x="130" y="340" width="10" height="20" fill="#929292" />
<rect x="140" y="340" width="10" height="10" fill="#919191" />
<rect x="490" y="340" width="120" height="10" fill="#F9F2E4" />
<rect x="610" y="340" width="10" height="10" fill="#C9B79C" />
<rect x="620" y="340" width="10" height="130" fill="#908171" />
<rect x="630" y="340" width="10" height="250" fill="#C9B79C" />
<rect x="20" y="350" width="10" height="10" fill="#929292" />
<rect x="30" y="350" width="20" height="10" fill="#8D8D8D" />
<rect x="50" y="350" width="10" height="10" fill="#959696" />
<rect x="60" y="350" width="10" height="10" fill="#828282" />
<rect x="70" y="350" width="20" height="30" fill="#FFFFFF" />
<rect x="90" y="350" width="10" height="10" fill="#828282" />
<rect x="100" y="350" width="10" height="10" fill="#959696" />
<rect x="110" y="350" width="10" height="10" fill="#8D8D8D" />
<rect x="120" y="350" width="10" height="20" fill="#8F9090" />
<rect x="140" y="350" width="10" height="10" fill="#909192" />
<rect x="160" y="350" width="40" height="130" fill="#2F8055" />
<rect x="200" y="350" width="60" height="20" fill="#FFFFFF" />
<rect x="260" y="350" width="60" height="10" fill="#2F8055" />
<rect x="320" y="350" width="40" height="130" fill="#F1C55A" />
<rect x="360" y="350" width="60" height="20" fill="#FFFFFF" />
<rect x="420" y="350" width="60" height="10" fill="#F1C55A" />
<rect x="490" y="350" width="20" height="100" fill="#F9F2E4" />
<rect x="510" y="350" width="100" height="100" fill="#C9B79C" />
<rect x="610" y="350" width="10" height="120" fill="#908171" />
<rect x="10" y="360" width="10" height="20" fill="#909192" />
<rect x="20" y="360" width="10" height="10" fill="#8E8E8E" />
<rect x="30" y="360" width="10" height="10" fill="#8D8D8D" />
<rect x="40" y="360" width="20" height="10" fill="#FFFFFF" />
<rect x="60" y="360" width="10" height="10" fill="#000000" />
<rect x="90" y="360" width="10" height="10" fill="#000000" />
<rect x="100" y="360" width="20" height="10" fill="#FFFFFF" />
<rect x="130" y="360" width="10" height="10" fill="#939495" />
<rect x="140" y="360" width="10" height="10" fill="#909294" />
<rect x="260" y="360" width="10" height="30" fill="#FFFFFF" />
<rect x="270" y="360" width="50" height="10" fill="#2F8055" />
<rect x="420" y="360" width="10" height="30" fill="#FFFFFF" />
<rect x="430" y="360" width="50" height="10" fill="#F1C55A" />
<rect x="20" y="370" width="10" height="10" fill="#8D8D8D" />
<rect x="30" y="370" width="10" height="10" fill="#959696" />
<rect x="40" y="370" width="10" height="10" fill="#FFFFFF" />
<rect x="50" y="370" width="10" height="10" fill="#000000" />
<rect x="60" y="370" width="10" height="20" fill="#FFFFFF" />
<rect x="90" y="370" width="10" height="20" fill="#FFFFFF" />
<rect x="100" y="370" width="10" height="10" fill="#000000" />
<rect x="110" y="370" width="10" height="10" fill="#FFFFFF" />
<rect x="120" y="370" width="10" height="20" fill="#000000" />
<rect x="130" y="370" width="10" height="10" fill="#959696" />
<rect x="140" y="370" width="10" height="10" fill="#979797" />
<rect x="200" y="370" width="10" height="30" fill="#2F8055" />
<rect x="210" y="370" width="30" height="10" fill="#000000" />
<rect x="240" y="370" width="20" height="30" fill="#FFFFFF" />
<rect x="270" y="370" width="10" height="30" fill="#000000" />
<rect x="280" y="370" width="40" height="110" fill="#2F8055" />
<rect x="360" y="370" width="10" height="50" fill="#F1C55A" />
<rect x="370" y="370" width="30" height="10" fill="#000000" />
<rect x="400" y="370" width="20" height="70" fill="#FFFFFF" />
<rect x="430" y="370" width="10" height="20" fill="#000000" />
<rect x="440" y="370" width="40" height="110" fill="#F1C55A" />
<rect x="10" y="380" width="10" height="10" fill="#8F9090" />
<rect x="20" y="380" width="10" height="10" fill="#929292" />
<rect x="30" y="380" width="10" height="10" fill="#828282" />
<rect x="40" y="380" width="10" height="10" fill="#000000" />
<rect x="50" y="380" width="10" height="40" fill="#FFFFFF" />
<rect x="70" y="380" width="20" height="10" fill="#000000" />
<rect x="100" y="380" width="10" height="40" fill="#FFFFFF" />
<rect x="110" y="380" width="10" height="10" fill="#000000" />
<rect x="130" y="380" width="10" height="10" fill="#979797" />
<rect x="140" y="380" width="10" height="10" fill="#9B9C9C" />
<rect x="210" y="380" width="30" height="10" fill="#2F8055" />
<rect x="370" y="380" width="30" height="10" fill="#F1C55A" />
<rect x="10" y="390" width="20" height="20" fill="#8D8D8D" />
<rect x="30" y="390" width="20" height="20" fill="#FFFFFF" />
<rect x="60" y="390" width="10" height="20" fill="#000000" />
<rect x="70" y="390" width="20" height="20" fill="#FFFFFF" />
<rect x="90" y="390" width="10" height="20" fill="#000000" />
<rect x="110" y="390" width="20" height="20" fill="#FFFFFF" />
<rect x="130" y="390" width="10" height="30" fill="#000000" />
<rect x="140" y="390" width="20" height="10" fill="#909294" />
<rect x="210" y="390" width="30" height="10" fill="#FFFFFF" />
<rect x="260" y="390" width="10" height="20" fill="#000000" />
<rect x="370" y="390" width="10" height="30" fill="#F1C55A" />
<rect x="380" y="390" width="20" height="10" fill="#FFFFFF" />
<rect x="420" y="390" width="10" height="10" fill="#000000" />
<rect x="430" y="390" width="10" height="10" fill="#F1C55A" />
<rect x="140" y="400" width="10" height="10" fill="#979797" />
<rect x="150" y="400" width="10" height="10" fill="#909294" />
<rect x="200" y="400" width="30" height="40" fill="#FFFFFF" />
<rect x="230" y="400" width="30" height="10" fill="#000000" />
<rect x="270" y="400" width="10" height="30" fill="#2F8055" />
<rect x="380" y="400" width="10" height="20" fill="#F1C55A" />
<rect x="390" y="400" width="10" height="10" fill="#000000" />
<rect x="420" y="400" width="10" height="30" fill="#FFFFFF" />
<rect x="430" y="400" width="10" height="40" fill="#000000" />
<rect x="10" y="410" width="10" height="10" fill="#8F9090" />
<rect x="20" y="410" width="10" height="10" fill="#929292" />
<rect x="30" y="410" width="10" height="10" fill="#828282" />
<rect x="40" y="410" width="10" height="10" fill="#000000" />
<rect x="60" y="410" width="10" height="20" fill="#FFFFFF" />
<rect x="70" y="410" width="20" height="10" fill="#000000" />
<rect x="90" y="410" width="10" height="20" fill="#FFFFFF" />
<rect x="110" y="410" width="20" height="10" fill="#000000" />
<rect x="140" y="410" width="10" height="10" fill="#989999" />
<rect x="150" y="410" width="10" height="10" fill="#8E9092" />
<rect x="230" y="410" width="10" height="10" fill="#000000" />
<rect x="240" y="410" width="30" height="10" fill="#2F8055" />
<rect x="390" y="410" width="10" height="10" fill="#F1C55A" />
<rect x="10" y="420" width="10" height="20" fill="#909192" />
<rect x="20" y="420" width="10" height="10" fill="#8D8D8D" />
<rect x="30" y="420" width="10" height="10" fill="#959696" />
<rect x="40" y="420" width="10" height="20" fill="#FFFFFF" />
<rect x="50" y="420" width="10" height="10" fill="#000000" />
<rect x="70" y="420" width="20" height="30" fill="#FFFFFF" />
<rect x="100" y="420" width="10" height="10" fill="#000000" />
<rect x="110" y="420" width="10" height="20" fill="#FFFFFF" />
<rect x="120" y="420" width="10" height="30" fill="#000000" />
<rect x="130" y="420" width="10" height="10" fill="#989999" />
<rect x="140" y="420" width="10" height="10" fill="#9D9D9E" />
<rect x="150" y="420" width="10" height="60" fill="#8A8B8E" />
<rect x="230" y="420" width="40" height="20" fill="#FFFFFF" />
<rect x="360" y="420" width="40" height="20" fill="#FFFFFF" />
<rect x="20" y="430" width="10" height="10" fill="#8E8E8E" />
<rect x="30" y="430" width="10" height="10" fill="#8D8D8D" />
<rect x="50" y="430" width="10" height="10" fill="#FFFFFF" />
<rect x="60" y="430" width="10" height="20" fill="#000000" />
<rect x="90" y="430" width="10" height="30" fill="#000000" />
<rect x="100" y="430" width="10" height="10" fill="#FFFFFF" />
<rect x="130" y="430" width="10" height="10" fill="#9B9C9C" />
<rect x="140" y="430" width="10" height="10" fill="#989999" />
<rect x="270" y="430" width="10" height="20" fill="#000000" />
<rect x="420" y="430" width="10" height="20" fill="#000000" />
<rect x="10" y="440" width="10" height="20" fill="#8F9090" />
<rect x="20" y="440" width="10" height="10" fill="#919191" />
<rect x="30" y="440" width="20" height="10" fill="#8F9090" />
<rect x="50" y="440" width="10" height="10" fill="#000000" />
<rect x="100" y="440" width="20" height="10" fill="#000000" />
<rect x="130" y="440" width="10" height="20" fill="#989999" />
<rect x="140" y="440" width="10" height="10" fill="#959696" />
<rect x="200" y="440" width="10" height="40" fill="#2F8055" />
<rect x="210" y="440" width="60" height="10" fill="#000000" />
<rect x="360" y="440" width="10" height="40" fill="#F1C55A" />
<rect x="370" y="440" width="50" height="10" fill="#000000" />
<rect x="430" y="440" width="10" height="40" fill="#F1C55A" />
<rect x="20" y="450" width="20" height="10" fill="#929292" />
<rect x="40" y="450" width="10" height="10" fill="#939495" />
<rect x="50" y="450" width="10" height="10" fill="#959696" />
<rect x="60" y="450" width="10" height="10" fill="#979797" />
<rect x="70" y="450" width="20" height="10" fill="#000000" />
<rect x="100" y="450" width="10" height="10" fill="#989999" />
<rect x="110" y="450" width="10" height="10" fill="#9B9C9C" />
<rect x="120" y="450" width="10" height="10" fill="#989999" />
<rect x="140" y="450" width="10" height="10" fill="#919191" />
<rect x="210" y="450" width="70" height="30" fill="#2F8055" />
<rect x="370" y="450" width="60" height="30" fill="#F1C55A" />
<rect x="490" y="450" width="10" height="10" fill="#F9F2E4" />
<rect x="500" y="450" width="10" height="10" fill="#C9B79C" />
<rect x="510" y="450" width="100" height="20" fill="#908171" />
<rect x="10" y="460" width="10" height="10" fill="#8E9092" />
<rect x="20" y="460" width="10" height="10" fill="#919191" />
<rect x="30" y="460" width="10" height="10" fill="#909192" />
<rect x="40" y="460" width="10" height="10" fill="#909294" />
<rect x="50" y="460" width="10" height="10" fill="#979797" />
<rect x="60" y="460" width="10" height="10" fill="#9B9C9C" />
<rect x="70" y="460" width="10" height="20" fill="#909294" />
<rect x="80" y="460" width="10" height="10" fill="#979797" />
<rect x="90" y="460" width="10" height="10" fill="#989999" />
<rect x="100" y="460" width="10" height="10" fill="#9D9D9E" />
<rect x="110" y="460" width="10" height="10" fill="#989999" />
<rect x="120" y="460" width="10" height="10" fill="#959696" />
<rect x="130" y="460" width="10" height="10" fill="#919191" />
<rect x="140" y="460" width="10" height="10" fill="#8E9092" />
<rect x="490" y="460" width="10" height="30" fill="#C9B79C" />
<rect x="500" y="460" width="10" height="10" fill="#908171" />
<rect x="0" y="470" width="70" height="10" fill="#8A8B8E" />
<rect x="80" y="470" width="10" height="10" fill="#909294" />
<rect x="90" y="470" width="10" height="10" fill="#8E9092" />
<rect x="100" y="470" width="50" height="10" fill="#8A8B8E" />
<rect x="500" y="470" width="130" height="20" fill="#C9B79C" />
<rect x="0" y="480" width="160" height="10" fill="#C9B79C" />
<rect x="160" y="480" width="160" height="30" fill="#79B4FF" />
<rect x="320" y="480" width="160" height="160" fill="#C9B79C" />
<rect x="0" y="490" width="10" height="100" fill="#C9B79C" />
<rect x="10" y="490" width="130" height="10" fill="#F9F2E4" />
<rect x="140" y="490" width="20" height="10" fill="#C9B79C" />
<rect x="490" y="490" width="130" height="10" fill="#F9F2E4" />
<rect x="620" y="490" width="10" height="10" fill="#C9B79C" />
<rect x="10" y="500" width="120" height="10" fill="#F9F2E4" />
<rect x="130" y="500" width="10" height="10" fill="#C9B79C" />
<rect x="140" y="500" width="10" height="130" fill="#908171" />
<rect x="150" y="500" width="10" height="140" fill="#C9B79C" />
<rect x="490" y="500" width="120" height="10" fill="#F9F2E4" />
<rect x="610" y="500" width="10" height="10" fill="#C9B79C" />
<rect x="620" y="500" width="10" height="110" fill="#908171" />
<rect x="10" y="510" width="20" height="100" fill="#F9F2E4" />
<rect x="30" y="510" width="100" height="100" fill="#C9B79C" />
<rect x="130" y="510" width="10" height="120" fill="#908171" />
<rect x="160" y="510" width="60" height="10" fill="#79B4FF" />
<rect x="220" y="510" width="30" height="90" fill="#FFFFFF" />
<rect x="250" y="510" width="70" height="10" fill="#79B4FF" />
<rect x="490" y="510" width="20" height="100" fill="#F9F2E4" />
<rect x="510" y="510" width="100" height="100" fill="#C9B79C" />
<rect x="610" y="510" width="10" height="110" fill="#908171" />
<rect x="160" y="520" width="50" height="10" fill="#79B4FF" />
<rect x="210" y="520" width="10" height="20" fill="#FFFFFF" />
<rect x="250" y="520" width="10" height="60" fill="#000000" />
<rect x="260" y="520" width="60" height="60" fill="#79B4FF" />
<rect x="160" y="530" width="40" height="110" fill="#79B4FF" />
<rect x="200" y="530" width="10" height="10" fill="#FFFFFF" />
<rect x="200" y="540" width="10" height="40" fill="#79B4FF" />
<rect x="210" y="540" width="10" height="10" fill="#000000" />
<rect x="210" y="550" width="10" height="30" fill="#79B4FF" />
<rect x="200" y="580" width="20" height="20" fill="#FFFFFF" />
<rect x="250" y="580" width="20" height="20" fill="#FFFFFF" />
<rect x="270" y="580" width="50" height="10" fill="#79B4FF" />
<rect x="270" y="590" width="10" height="20" fill="#000000" />
<rect x="280" y="590" width="40" height="50" fill="#79B4FF" />
<rect x="200" y="600" width="10" height="40" fill="#79B4FF" />
<rect x="210" y="600" width="60" height="10" fill="#000000" />
<rect x="20" y="610" width="10" height="10" fill="#C9B79C" />
<rect x="30" y="610" width="100" height="20" fill="#908171" />
<rect x="210" y="610" width="70" height="30" fill="#79B4FF" />
<rect x="490" y="610" width="10" height="10" fill="#F9F2E4" />
<rect x="500" y="610" width="10" height="10" fill="#C9B79C" />
<rect x="510" y="610" width="100" height="20" fill="#908171" />
<rect x="490" y="620" width="10" height="20" fill="#C9B79C" />
<rect x="500" y="620" width="10" height="10" fill="#908171" />
<rect x="50" y="630" width="100" height="10" fill="#C9B79C" />
<rect x="500" y="630" width="90" height="10" fill="#C9B79C" />
</svg>